<mxfile host="Electron" agent="Mozilla/5.0 (Windows NT 10.0; Win64; x64) AppleWebKit/537.36 (KHTML, like Gecko) draw.io/26.2.15 Chrome/134.0.6998.205 Electron/35.2.1 Safari/537.36" version="26.2.15">
  <diagram name="Page-1" id="ZvdtIHcBL9XCV6dtNm69">
    <mxGraphModel dx="1193" dy="759" grid="1" gridSize="10" guides="1" tooltips="1" connect="1" arrows="1" fold="1" page="1" pageScale="1" pageWidth="1169" pageHeight="827" math="0" shadow="0">
      <root>
        <mxCell id="0" />
        <mxCell id="1" parent="0" />
        <mxCell id="MCLq1SWzRcjiVBtT3A2h-21" value="" style="shape=image;verticalLabelPosition=bottom;labelBackgroundColor=default;verticalAlign=top;aspect=fixed;imageAspect=0;editableCssRules=.*;image=data:image/svg+xml,PHN2ZyB4bWxucz0iaHR0cDovL3d3dy53My5vcmcvMjAwMC9zdmciIHZpZXdCb3g9IjAgMCAyNjYuODkzMDA1MzcxMDkzNzUgMjY2Ljg5NDk4OTAxMzY3MTkiIGhlaWdodD0iNzk5Ljk5OTk2NzA2OTIxMjciIHdpZHRoPSI3OTkuOTk0MDIxMjMyNjAxIj48cGF0aCBmaWxsPSIjNDg1YTk2IiBkPSJNMjUyLjE2NCAyNjYuODk1YzguMTM0IDAgMTQuNzI5LTYuNTk2IDE0LjcyOS0xNC43M1YxNC43M2MwLTguMTM3LTYuNTk2LTE0LjczLTE0LjcyOS0xNC43M0gxNC43M0M2LjU5MyAwIDAgNi41OTQgMCAxNC43M3YyMzcuNDM0YzAgOC4xMzUgNi41OTMgMTQuNzMgMTQuNzMgMTQuNzNoMjM3LjQzNHoiLz48cGF0aCBmaWxsPSIjZmZmZmZmIiBkPSJNMTg0LjE1MiAyNjYuODk1VjE2My41MzloMzQuNjkybDUuMTk0LTQwLjI4aC0zOS44ODdWOTcuNTQyYzAtMTEuNjYyIDMuMjM4LTE5LjYwOSAxOS45NjItMTkuNjA5bDIxLjMyOS0uMDFWNDEuODk3Yy0zLjY4OS0uNDktMTYuMzUxLTEuNTg3LTMxLjA4LTEuNTg3LTMwLjc1MyAwLTUxLjgwNyAxOC43NzEtNTEuODA3IDUzLjI0NHYyOS43MDVoLTM0Ljc4MXY0MC4yOGgzNC43ODF2MTAzLjM1NWg0MS41OTd6Ii8+PC9zdmc+;" vertex="1" parent="1">
          <mxGeometry x="1030" y="210" width="90" height="90" as="geometry" />
        </mxCell>
        <mxCell id="MCLq1SWzRcjiVBtT3A2h-1" value="&lt;b&gt;&lt;font style=&quot;font-size: 25px;&quot;&gt;System Architechture&lt;/font&gt;&lt;/b&gt;" style="text;html=1;align=center;verticalAlign=middle;whiteSpace=wrap;rounded=0;" vertex="1" parent="1">
          <mxGeometry x="438" y="10" width="293" height="30" as="geometry" />
        </mxCell>
        <mxCell id="MCLq1SWzRcjiVBtT3A2h-2" value="" style="endArrow=none;html=1;rounded=0;entryX=0;entryY=1;entryDx=0;entryDy=0;exitX=1;exitY=1;exitDx=0;exitDy=0;shape=link;" edge="1" parent="1" source="MCLq1SWzRcjiVBtT3A2h-1" target="MCLq1SWzRcjiVBtT3A2h-1">
          <mxGeometry width="50" height="50" relative="1" as="geometry">
            <mxPoint x="360" y="150" as="sourcePoint" />
            <mxPoint x="440" y="100" as="targetPoint" />
          </mxGeometry>
        </mxCell>
        <mxCell id="MCLq1SWzRcjiVBtT3A2h-6" value="Internet" style="sketch=0;pointerEvents=1;shadow=0;dashed=0;html=1;strokeColor=none;fillColor=#505050;labelPosition=center;verticalLabelPosition=bottom;outlineConnect=0;verticalAlign=top;align=center;shape=mxgraph.office.clouds.cloud;" vertex="1" parent="1">
          <mxGeometry x="637" y="269" width="94" height="55" as="geometry" />
        </mxCell>
        <mxCell id="MCLq1SWzRcjiVBtT3A2h-8" style="edgeStyle=orthogonalEdgeStyle;rounded=0;orthogonalLoop=1;jettySize=auto;html=1;startArrow=classic;startFill=1;exitX=1;exitY=0.5;exitDx=0;exitDy=0;" edge="1" parent="1" source="MCLq1SWzRcjiVBtT3A2h-17" target="MCLq1SWzRcjiVBtT3A2h-25">
          <mxGeometry relative="1" as="geometry">
            <mxPoint x="909" y="297" as="sourcePoint" />
            <mxPoint x="1020" y="297" as="targetPoint" />
          </mxGeometry>
        </mxCell>
        <mxCell id="MCLq1SWzRcjiVBtT3A2h-9" style="edgeStyle=orthogonalEdgeStyle;rounded=0;orthogonalLoop=1;jettySize=auto;html=1;startArrow=classic;startFill=1;exitX=0;exitY=0.5;exitDx=0;exitDy=0;" edge="1" parent="1" source="MCLq1SWzRcjiVBtT3A2h-17" target="MCLq1SWzRcjiVBtT3A2h-6">
          <mxGeometry relative="1" as="geometry">
            <mxPoint x="850" y="297" as="sourcePoint" />
          </mxGeometry>
        </mxCell>
        <mxCell id="MCLq1SWzRcjiVBtT3A2h-14" style="edgeStyle=orthogonalEdgeStyle;rounded=0;orthogonalLoop=1;jettySize=auto;html=1;exitX=0.5;exitY=0;exitDx=0;exitDy=0;entryX=0.5;entryY=1;entryDx=0;entryDy=0;" edge="1" parent="1" source="MCLq1SWzRcjiVBtT3A2h-11" target="MCLq1SWzRcjiVBtT3A2h-12">
          <mxGeometry relative="1" as="geometry" />
        </mxCell>
        <mxCell id="MCLq1SWzRcjiVBtT3A2h-11" value="Topic: PagesLiked" style="shape=image;verticalLabelPosition=bottom;labelBackgroundColor=none;verticalAlign=top;aspect=fixed;imageAspect=0;editableCssRules=.*;image=data:image/svg+xml,PHN2ZyB4bWxuczp4bGluaz0iaHR0cDovL3d3dy53My5vcmcvMTk5OS94bGluayIgeG1sbnM9Imh0dHA6Ly93d3cudzMub3JnLzIwMDAvc3ZnIiBwcmVzZXJ2ZUFzcGVjdFJhdGlvPSJ4TWlkWU1pZCIgdmVyc2lvbj0iMS4xIiB2aWV3Qm94PSIwLjAwNTAxNDcxMDU5Mzk2ODYzIDAuMjAzNjQ0MjQ1ODYyOTYwODIgNTExLjczMzcwMzYxMzI4MTI1IDIzMy40ODc0NDIwMTY2MDE1NiIgaGVpZ2h0PSIzNjQuODI0MTI4MTUwOTM5OTQiIHdpZHRoPSI3OTkuNTgzOTExODk1NzUyIj4mI3hhOwkJPGcgZmlsbD0iIzFBMTkxOSI+JiN4YTsJCQkJPHBhdGggZD0iTTQ5Ljc2MzQ4MTMsMjAuOTc5NTkwNSBDNDcuMTgwOTA1MywxOC4zODY5ODUxIDQzLjU5Nzg5NDUsMTYuNzg5Nzk5OCAzOS42MDM2Nzc1LDE2Ljc4OTc5OTggQzM1LjYxOTQ4OTksMTYuNzg5Nzk5OCAzMi4wNjQwNiwxOC4zODY5ODUxIDI5LjUxNDA3OTYsMjAuOTc5NTkwNSBMMjkuNDQ4ODg4NCwyMC45Nzk1OTA1IEMyNi44NzM4MzQ1LDIzLjU1NDY0NDUgMjUuMjc2NjQ5MSwyNy4xNDc2ODQ3IDI1LjI3NjY0OTEsMzEuMTE2ODI4MiBDMjUuMjc2NjQ5MSwzNS4xMDg1Mzc4IDI2Ljg3MzgzNDUsMzguNjc5MDExOCAyOS40NDg4ODg0LDQxLjIyODk5MjIgTDI5LjUxNDA3OTYsNDEuMjk5MTk4MiBDMzIuMDY0MDYsNDMuODY5MjM3NCAzNS42MTk0ODk5LDQ1LjQ0Mzg1NjUgMzkuNjAzNjc3NSw0NS40NDM4NTY1IEM0My41OTc4OTQ1LDQ1LjQ0Mzg1NjUgNDcuMTgwOTA1Myw0My44NjkyMzc0IDQ5Ljc2MzQ4MTMsNDEuMjk5MTk4MiBMNDkuNzkzNTY5NSw0MS4yMjg5OTIyIEM1Mi4zNzg2NTI5LDM4LjY3OTAxMTggNTMuOTU1Nzc5NCwzNS4xMDg1Mzc4IDUzLjk1NTc3OTQsMzEuMTE2ODI4MiBDNTMuOTU1Nzc5NCwyNy4xNDc2ODQ3IDUyLjM3ODY1MjksMjMuNTU0NjQ0NSA0OS43OTM1Njk1LDIwLjk3OTU5MDUgTDQ5Ljc2MzQ4MTMsMjAuOTc5NTkwNSBaIE0zOS42MDM2Nzc1LDIxNy4xMDQ5MjUgQzQzLjU5Nzg5NDUsMjE3LjEwNDkyNSA0Ny4xODA5MDUzLDIxNS40Nzc2NTEgNDkuNzYzNDgxMywyMTIuOTMyNjg1IEw0OS43OTM1Njk1LDIxMi44NTc0NjUgQzUyLjM3ODY1MjksMjEwLjMxNzUxNCA1My45NTU3Nzk0LDIwNi43MjQ0NzQgNTMuOTU1Nzc5NCwyMDIuNzc1Mzg5IEM1My45NTU3Nzk0LDE5OC43ODM2NzkgNTIuMzc4NjUyOSwxOTUuMjA4MTkxIDQ5Ljc5MzU2OTUsMTkyLjYyMDYgTDQ5Ljc2MzQ4MTMsMTkyLjYyMDYgQzQ3LjE4MDkwNTMsMTkwLjAwMjkyMSA0My41OTc4OTQ1LDE4OC40MjA3OCAzOS42MDM2Nzc1LDE4OC40MjA3OCBDMzUuNjE5NDg5OSwxODguNDIwNzggMzIuMDY0MDYsMTkwLjAwMjkyMSAyOS41MTQwNzk2LDE5Mi42MjA2IEwyOS40NDg4ODg0LDE5Mi42MjA2IEMyNi44NzM4MzQ1LDE5NS4yMDgxOTEgMjUuMjc2NjQ5MSwxOTguNzgzNjc5IDI1LjI3NjY0OTEsMjAyLjc3NTM4OSBDMjUuMjc2NjQ5MSwyMDYuNzI0NDc0IDI2Ljg3MzgzNDUsMjEwLjMxNzUxNCAyOS40NDg4ODg0LDIxMi44NTc0NjUgTDI5LjUxNDA3OTYsMjEyLjkzMjY4NSBDMzIuMDY0MDYsMjE1LjQ3NzY1MSAzNS42MTk0ODk5LDIxNy4xMDQ5MjUgMzkuNjAzNjc3NSwyMTcuMTA0OTI1IFogTTExNy42NjUxNzEsMTczLjY5NTA4MiBDMTIxLjIxMzA3OSwxNzIuNzYyMzQ2IDEyNC40MjUwMDEsMTcwLjQ4NTY2NyAxMjYuMzg4MjYsMTY3LjA0MDU2MSBMMTI2LjY1MTUzMywxNjYuNTM2NTgyIEMxMjguMzk2NjUyLDE2My4yNzQ1MTMgMTI4LjcxNTA4NiwxNTkuNTAzNDUxIDEyNy43ODIzNSwxNTYuMTU2MTMxIEMxMjYuODQyMDkyLDE1Mi41ODMxNSAxMjQuNTQwMzM5LDE0OS40MTM4NTMgMTIxLjEwMjc1NSwxNDcuNDQwNTY0IEwxMjAuODk5NjU5LDE0Ny4zMDUxNjcgQzExNy41NDk4MzMsMTQ1LjQ2NDc2OCAxMTMuNzM4NjUzLDE0NS4wNjM1OTEgMTEwLjIzMzM3LDE0Ni4wMTg4OTQgQzEwNi42NzA0MTgsMTQ2LjkwOTAwNSAxMDMuNDY4NTI1LDE0OS4yODA5NjMgMTAxLjUxNzgwMywxNTIuNjk1OTgxIEM5OS41NDIwMDY3LDE1Ni4wOTA5NCA5OS4xMzA4MDA0LDE1OS45OTIzODUgMTAwLjA3NjA3MywxNjMuNTgyOTE4IEMxMDEuMDUxNDM1LDE2Ny4xMTU3ODEgMTAzLjMzNTYzNSwxNzAuMzA3NjQ1IDEwNi43NTMxNjEsMTcyLjMwMzUgTDEwNi43NzMyMTksMTcyLjMwMzUgQzExMC4xOTgyNjcsMTc0LjI3MTc3NCAxMTQuMDY5NjIzLDE3NC42MjUzMTEgMTE3LjY2NTE3MSwxNzMuNjk1MDgyIFogTTU0LjI5OTI4NzEsMTAyLjI2NTU0MyBDNTAuNTM4MjU0MSw5OC41MTQ1Mzk1IDQ1LjM0ODAyODUsOTYuMTYyNjQwMiAzOS42MDM2Nzc1LDk2LjE2MjY0MDIgQzMzLjg2Njg0ODUsOTYuMTYyNjQwMiAyOC42OTE2NjcxLDk4LjUxNDUzOTUgMjQuOTM4MTU2MSwxMDIuMjY1NTQzIEMyMS4xOTcxODIsMTA2LjAxMTUzMiAxOC44OTA0MTUxLDExMS4xNzkxOTEgMTguODkwNDE1MSwxMTYuOTIzNTQyIEMxOC44OTA0MTUxLDEyMi42Njc4OTMgMjEuMTk3MTgyLDEyNy44NTgxMTkgMjQuOTM4MTU2MSwxMzEuNjQ2NzMzIEMyOC42OTE2NjcxLDEzNS4zNzUxNyAzMy44NjY4NDg1LDEzNy43MDQ1MDMgMzkuNjAzNjc3NSwxMzcuNzA0NTAzIEM0NS4zNDgwMjg1LDEzNy43MDQ1MDMgNTAuNTM4MjU0MSwxMzUuMzc1MTcgNTQuMjk5Mjg3MSwxMzEuNjQ2NzMzIEM1OC4wNTAyOTA3LDEyNy44NTgxMTkgNjAuMzU3MDU3NiwxMjIuNjY3ODkzIDYwLjM1NzA1NzYsMTE2LjkyMzU0MiBDNjAuMzU3MDU3NiwxMTEuMTc5MTkxIDU4LjA1MDI5MDcsMTA2LjAxMTUzMiA1NC4yOTkyODcxLDEwMi4yNjU1NDMgWiBNNDYuMDM1MDQzOSw3Ny44NDY0MDk1IEM1NC4zNzQ1MDc3LDc5LjIyMDQ0MDIgNjEuODYxNDcwOCw4My4yMTQ2NTczIDY3LjU4NTc2Myw4OC45NzkwNjcyIEw2Ny42MjgzODgsODguOTc5MDY3MiBDNjguNTM4NTU4LDg5Ljg4NjcyOTggNjkuNDIzNjU0NCw5MC44ODcxNjQ2IDcwLjI0ODU3NDMsOTEuODg1MDkyIEw4NC41NTMwMzY1LDgzLjYxMDgxOTQgQzgyLjYyOTg5NSw3Ny43OTg3Njk3IDgyLjUzOTYzMDIsNzEuNzIzNDQ3OCA4NC4wODY2Njg0LDY2LjAyNDIyOTEgQzg2LjEyNTE0ODMsNTguMzk0MzQ2OCA5MS4wNzIxNjA0LDUxLjU2NDMxMDkgOTguNDg4OTE3NSw0Ny4yODQyNTUzIEw5OC43Mjk2MjM2LDQ3LjEzMTMwNjcgQzEwNi4wNjYxNDUsNDIuOTgxNjMzNiAxMTQuNDAzMTAyLDQyLjExNjU5NiAxMjEuOTI3Njc1LDQ0LjE1NTA3NTkgQzEyOS41NTAwMzUsNDYuMTk4NTcwNSAxMzYuNDI1MjA0LDUxLjE2ODE0ODggMTQwLjcwNTI1OSw1OC41NzIzNjkgTDE0MC43MDUyNTksNTguNTk0OTM1MiBDMTQ0Ljk2NTI1Niw2NS45NTkwMzc5IDE0NS44Mjc3ODYsNzQuNDA4ODI1MyAxNDMuNzk2ODI4LDgyLjAxNjE0MTQgQzE0MS43NjgzNzgsODkuNjQzNTE2MyAxMzYuODAzODE0LDk2LjUyMTE5MiAxMjkuMzk0NTc5LDEwMC43NzYxNzQgTDEyNy40NDEzNDksMTAxLjkyOTU1NyBMMTI3LjI0MzI2OCwxMDEuOTI5NTU3IEMxMjAuMzkwNjY2LDEwNS4xOTE2MjcgMTEyLjg1NjA2NCwxMDUuNzAzMTI3IDEwNS45MzU3NjMsMTAzLjg4MDI4IEMxMDAuMjU0MDk2LDEwMi4zNzU4NjcgOTUuMDQzODExMiw5OS4yMDE1NTQ5IDkwLjk2MTgzNjcsOTQuNzAwODUyIEw3Ni42Nzc0MzM0LDEwMi45NTI1NTggQzc4LjMxOTc1MTIsMTA3LjI5NTI5OCA3OS4yMjc0MTM4LDExMS45NzY1MyA3OS4yMjc0MTM4LDExNi45MjM1NDIgQzc5LjIyNzQxMzgsMTIxLjg0NTQ4MSA3OC4zMTk3NTEyLDEyNi41OTQ0MTIgNzYuNjc3NDMzNCwxMzAuOTU5NzE3IEw5MC45NjE4MzY3LDEzOS4xODg4NTggQzk1LjA0MzgxMTIsMTM0LjYxNzk0OSAxMDAuMjU0MDk2LDEzMS41MTYzNSAxMDUuOTM1NzYzLDEzMC4wMDY5MjIgQzExMy41NjA2MywxMjcuOTIzMzEgMTIyLjAxMDQxOCwxMjguODA4NDA3IDEyOS4zOTQ1NzksMTMzLjExMzUzNiBMMTI5Ljg2ODQ2OSwxMzMuMzM0MTgzIEwxMjkuODY4NDY5LDEzMy4zNTY3NDkgQzEzNy4wMDE4OTUsMTM3LjY4MTkzNyAxNDEuNzkwOTQ0LDE0NC4zNTY1MTcgMTQzLjc5NjgyOCwxNTEuODk2MTM1IEMxNDUuODI3Nzg2LDE1OS40NTgzMTggMTQ0Ljk2NTI1NiwxNjcuOTEzMTIgMTQwLjcwNTI1OSwxNzUuMjkyMjY3IEwxNDAuNDQ3MDAyLDE3NS44MDYyNzUgTDE0MC40MTY5MTMsMTc1Ljc2MzY1IEMxMzYuMTM5MzY1LDE4Mi44NzcwMTcgMTI5LjM5NDU3OSwxODcuNjk2MTU0IDEyMS45NTAyNDEsMTg5LjczNDYzNCBDMTE0LjMxNTM0NCwxOTEuNzQ4MDQgMTA1Ljg2MzA0OSwxOTAuODg4MDE3IDk4LjQ4ODkxNzUsMTg2LjY0NTU3MiBMOTguNDg4OTE3NSwxODYuNTg3OTAzIEM5MS4wNzIxNjA0LDE4Mi4zMDAzMjUgODYuMTI1MTQ4MywxNzUuNDU1MjQ1IDg0LjA4NjY2ODQsMTY3Ljg0MDQwNyBDODIuNTM5NjMwMiwxNjIuMTY2MjYyIDgyLjYyOTg5NSwxNTYuMDkwOTQgODQuNTUzMDM2NSwxNTAuMjgxMzk4IEw3MC4yNDg1NzQzLDE0Mi4wMjcxODQgQzY5LjQyMzY1NDQsMTQzLjAyNTExMSA2OC41Mzg1NTgsMTQzLjk4MDQxNCA2Ny42MjgzODgsMTQ0Ljg4ODA3NiBMNjcuNTg1NzYzLDE0NC45MzMyMDkgQzYxLjg2MTQ3MDgsMTUwLjY3NzU2IDU0LjM3NDUwNzcsMTU0LjY2OTI3IDQ2LjAzNTA0MzksMTU1Ljk5ODE2OCBMNDYuMDM1MDQzOSwxNzIuNTI2NjU0IEM1MS45Nzc0NzYsMTczLjc2Nzc5NSA1Ny4yOTgwODQxLDE3Ni43MzkwMTEgNjEuNDY1MzA4NiwxODAuOTA4NzQzIEw2MS40ODc4NzQ4LDE4MC45NTEzNjggQzY3LjA3NDI2MjUsMTg2LjUxMjY4MiA3MC41MzQ0MTI5LDE5NC4yNjA0MSA3MC41MzQ0MTI5LDIwMi43NzUzODkgQzcwLjUzNDQxMjksMjExLjI2NTI5NCA2Ny4wNzQyNjI1LDIxOC45Njc4OSA2MS40ODc4NzQ4LDIyNC41NTY3ODUgTDYxLjQ2NTMwODYsMjI0LjY0NDU0MiBDNTUuODM4ODAzMywyMzAuMjMwOTMgNDguMTIxMTYzNSwyMzMuNjkxMDggMzkuNjAzNjc3NSwyMzMuNjkxMDggQzMxLjEzMTMyMzgsMjMzLjY5MTA4IDIzLjM5MzYyNTMsMjMwLjIzMDkzIDE3Ljc3OTY1NjcsMjI0LjY0NDU0MiBMMTcuNzU3MDkwNSwyMjQuNjQ0NTQyIEwxNy43NTcwOTA1LDIyNC41NTY3ODUgQzEyLjE2NTY4ODEsMjE4Ljk2Nzg5IDguNjk4MDE1NjUsMjExLjI2NTI5NCA4LjY5ODAxNTY1LDIwMi43NzUzODkgQzguNjk4MDE1NjUsMTk0LjI2MDQxIDEyLjE2NTY4ODEsMTg2LjUxMjY4MiAxNy43NTcwOTA1LDE4MC45NTEzNjggTDE3Ljc1NzA5MDUsMTgwLjkwODc0MyBMMTcuNzc5NjU2NywxODAuOTA4NzQzIEMyMS45NDQzNzM5LDE3Ni43MzkwMTEgMjcuMjc1MDExMywxNzMuNzY3Nzk1IDMzLjE5NDg3NzIsMTcyLjUyNjY1NCBMMzMuMTk0ODc3MiwxNTUuOTk4MTY4IEMyNC44NTc5MjA4LDE1NC42NjkyNyAxNy4zODM0OTQ1LDE1MC42Nzc1NiAxMS42NjkyMzE3LDE0NC45MzMyMDkgTDExLjYwOTA1NTIsMTQ0Ljg4ODA3NiBDNC40NzMxMjE5MSwxMzcuNzI3MDcgMC4wMDUwMTQ3MTA2NiwxMjcuODU4MTE5IDAuMDA1MDE0NzEwNjYsMTE2LjkyMzU0MiBDMC4wMDUwMTQ3MTA2NiwxMDYuMDExNTMyIDQuNDczMTIxOTEsOTYuMTQyNTgxMyAxMS42MDkwNTUyLDg4Ljk3OTA2NzIgTDExLjY2OTIzMTcsODguOTc5MDY3MiBDMTcuMzgzNDk0NSw4My4yMTQ2NTczIDI0Ljg1NzkyMDgsNzkuMjIwNDQwMiAzMy4xOTQ4NzcyLDc3Ljg0NjQwOTUgTDMzLjE5NDg3NzIsNjEuMzg4MTI5MSBDMjcuMjc1MDExMyw2MC4xMDQzNjMyIDIxLjk0NDM3MzksNTcuMTMzMTQ3MSAxNy43Nzk2NTY3LDUyLjk4NTk4MTQgTDE3Ljc1NzA5MDUsNTIuOTg1OTgxNCBMMTcuNzU3MDkwNSw1Mi45NDA4NDkgQzEyLjE2NTY4ODEsNDcuMzI5Mzg3NyA4LjY5ODAxNTY1LDM5LjYzNDMxNDIgOC42OTgwMTU2NSwzMS4xMTY4MjgyIEM4LjY5ODAxNTY1LDIyLjY0NDQ3NDUgMTIuMTY1Njg4MSwxNC44ODE3MDI0IDE3Ljc1NzA5MDUsOS4yOTI4MDczNSBMMTcuNzc5NjU2Nyw5LjI3MDI0MTE1IEMyMy4zOTM2MjUzLDMuNjYxMjg3MjcgMzEuMTMxMzIzOCwwLjIwMzY0NDI2NiAzOS42MDM2Nzc1LDAuMjAzNjQ0MjY2IEM0OC4xMjExNjM1LDAuMjAzNjQ0MjY2IDU1LjgzODgwMzMsMy42NjEyODcyNyA2MS40NjUzMDg2LDkuMjcwMjQxMTUgTDYxLjQ2NTMwODYsOS4yOTI4MDczNSBMNjEuNDg3ODc0OCw5LjI5MjgwNzM1IEM2Ny4wNzQyNjI1LDE0Ljg4MTcwMjQgNzAuNTM0NDEyOSwyMi42NDQ0NzQ1IDcwLjUzNDQxMjksMzEuMTE2ODI4MiBDNzAuNTM0NDEyOSwzOS42MzQzMTQyIDY3LjA3NDI2MjUsNDcuMzI5Mzg3NyA2MS40ODc4NzQ4LDUyLjk0MDg0OSBMNjEuNDY1MzA4Niw1Mi45ODU5ODE0IEM1Ny4yOTgwODQxLDU3LjEzMzE0NzEgNTEuOTc3NDc2LDYwLjEwNDM2MzIgNDYuMDM1MDQzOSw2MS4zODgxMjkxIEw0Ni4wMzUwNDM5LDc3Ljg0NjQwOTUgWiBNMTI2LjM4ODI2LDY2Ljg2OTIwNzggTDEyNi4yNjU0LDY2LjY4ODY3ODMgQzEyNC4yOTQ2MTksNjMuMzYzOTI1MSAxMjEuMTQ1MzgsNjEuMTQ3NDIzIDExNy42NjUxNzEsNjAuMTkyMTIwNiBDMTE0LjA2OTYyMyw1OS4yMzY4MTgyIDExMC4xOTgyNjcsNTkuNjM3OTk1MSAxMDYuNzUzMTYxLDYxLjYxMzc5MTEgTDEwNi43NzMyMTksNjEuNjEzNzkxMSBDMTAzLjMzNTYzNSw2My41NjQ1MTM1IDEwMS4wMzYzOSw2Ni43NTM4Njk1IDEwMC4wNzYwNzMsNzAuMzI5MzU4MiBDOTkuMTMwODAwNCw3My44NzcyNjYgOTkuNTQyMDA2Nyw3Ny43OTg3Njk3IDEwMS41MTc4MDMsODEuMjE2Mjk1MSBMMTAxLjU4NTUwMSw4MS4zMDQwNTI1IEMxMDMuNTYzODA1LDg0LjY3NjQ0NTQgMTA2LjcxNTU1LDg2LjkzODA3OTkgMTEwLjIzMzM3LDg3Ljg0ODI0OTkgQzExMy43Njg3NDEsODguODQ4Njg0NyAxMTcuNzA3Nzk2LDg4LjQyNDk0MTYgMTIxLjEwMjc1NSw4Ni40NDkxNDU2IEwxMjEuMjg1NzkyLDg2LjM2MTM4ODIgQzEyNC42MjgwOTcsODQuMzY1NTMzNCAxMjYuODU0NjI4LDgxLjIxNjI5NTEgMTI3Ljc4MjM1LDc3Ljc1NjE0NDcgQzEyOC43MzAxMyw3NC4xODU2NzA3IDEyOC4zNTE1MTksNzAuMjg0MjI1OCAxMjYuMzg4MjYsNjYuODY5MjA3OCBaIj4mI3hhOyYjeGE7PC9wYXRoPiYjeGE7CQkJCTxwYXRoIGQ9Ik0xODkuODU5NDUzLDcxLjcwMzM4ODkgTDIwNS44MjEyNzcsNzEuNzAzMzg4OSBMMjA1LjgyMTI3NywxMjAuNDI2MzE4IEwyMjguODM4Nzk5LDk0Ljk2NjYzMTcgTDI0Ny45Nzc0NDIsOTQuOTY2NjMxNyBMMjIwLjE4ODQyMywxMjQuNDYzMTYgTDI0OC4wOTI3ODEsMTYxLjg1Mjg0MyBMMjI5LjgxNjY2OCwxNjEuODUyODQzIEwyMDUuODIxMjc3LDEyOC40NTQ4NyBMMjA1LjgyMTI3NywxNjEuODUyODQzIEwxODkuODU5NDUzLDE2MS44NTI4NDMgTDE4OS44NTk0NTMsNzEuNzAzMzg4OSBaIE0yNjYuNTE5MzM1LDEyOC42OTgwODMgQzI2Ni41MTkzMzUsMTM2Ljk5NDkyMiAyNzIuNDg2ODQxLDE0OS4wNTc4MDggMjg2Ljg2NDAxNiwxNDkuMDU3ODA4IEMyOTUuNzYwMTEzLDE0OS4wNTc4MDggMzAxLjYxNDc4OCwxNDQuNDIxNzA4IDMwNC42NTExOTUsMTM4LjM0NjM4NiBDMzA2LjI0MDg1OCwxMzUuMzk3NzM2IDMwNi45NzMwMDYsMTMyLjI0NTk5MSAzMDcuMjE4NzI3LDEyOC45NjYzNyBDMzA3LjMyOTA1LDEyNS43OTIwNTggMzA2LjcyOTc5MywxMjIuNDkyMzc5IDMwNS4zODA4MzUsMTE5LjU2MTI4IEMzMDIuNTgyNjI3LDExMy4yNDI3NDUgMjk2LjM3MTkwOCwxMDcuNzY0MTczIDI4Ni43NDYxNzEsMTA3Ljc2NDE3MyBDMjczLjgzODMwNSwxMDcuNzY0MTczIDI2Ni41MTkzMzUsMTE4LjIyOTg3NCAyNjYuNTE5MzM1LDEyOC41ODc3NTkgTDI2Ni41MTkzMzUsMTI4LjY5ODA4MyBaIE0zMjMuMDUyNjc2LDE2MS44NTI4NDMgTDMwNy4wODMzMywxNjEuODUyODQzIEwzMDcuMDgzMzMsMTUyLjIyOTYxMyBDMzAyLjgzMzM2MiwxNjAuMDEyNDQ0IDI5My45MzQ3NTgsMTYzLjkxODkwMyAyODQuNTQ5NzI3LDE2My45MTg5MDMgQzI2My4xMDQzMTcsMTYzLjkxODkwMyAyNTAuNTYwMDE4LDE0Ny4yMTc0MDkgMjUwLjU2MDAxOCwxMjguMzQ0NTQ2IEMyNTAuNTYwMDE4LDEwNy4yNzUyMzkgMjY1Ljc4NzE4Nyw5Mi45MDMwNzgzIDI4NC41NDk3MjcsOTIuOTAzMDc4MyBDMjk2LjczMjk2Nyw5Mi45MDMwNzgzIDMwNC4xNjIyNjEsOTkuMzU5NTE4MiAzMDcuMDgzMzMsMTA0LjcyNTI1OSBMMzA3LjA4MzMzLDk0Ljk2NjYzMTcgTDMyMy4wNTI2NzYsOTQuOTY2NjMxNyBMMzIzLjA1MjY3NiwxNjEuODUyODQzIFogTTM0MS4xMjU2OTMsMTA3LjI3NTIzOSBMMzMyLjg1MzkyOCwxMDcuMjc1MjM5IEwzMzIuODUzOTI4LDk0Ljk2NjYzMTcgTDM0MS4xMjU2OTMsOTQuOTY2NjMxNyBMMzQxLjEyNTY5Myw5MS4xOTgwNzY2IEMzNDEuMTI1NjkzLDcxLjMyNDc3ODMgMzU2LjIzNzUyNCw3MC4xMjYyNjI0IDM2Ny42OTYxMzcsNjkuOTkzMzcyNiBMMzY3LjY5NjEzNyw4Mi4yNzk0MTM3IEMzNjMuNjY2ODE3LDgyLjI3OTQxMzcgMzU3LjA5NTAzOSw4Mi4yNzk0MTM3IDM1Ny4wOTUwMzksOTEuNjgxOTk2MiBMMzU3LjA5NTAzOSw5NC45NjY2MzE3IEwzNjcuNjk2MTM3LDk0Ljk2NjYzMTcgTDM2Ny42OTYxMzcsMTA3LjI3NTIzOSBMMzU3LjA5NTAzOSwxMDcuMjc1MjM5IEwzNTcuMDk1MDM5LDE2MS44NTI4NDMgTDM0MS4xMjU2OTMsMTYxLjg1Mjg0MyBMMzQxLjEyNTY5MywxMDcuMjc1MjM5IFogTTM3OC41NTA0NzksNzEuNzAzMzg4OSBMMzk0LjUwNzI4OCw3MS43MDMzODg5IEwzOTQuNTA3Mjg4LDEyMC40MjYzMTggTDQxNy41Mjk4MjUsOTQuOTY2NjMxNyBMNDM2LjY2ODQ2OCw5NC45NjY2MzE3IEw0MDguODc5NDQ5LDEyNC40NjMxNiBMNDM2Ljc3ODc5MiwxNjEuODUyODQzIEw0MTguNTAyNjc5LDE2MS44NTI4NDMgTDM5NC41MDcyODgsMTI4LjQ1NDg3IEwzOTQuNTA3Mjg4LDE2MS44NTI4NDMgTDM3OC41NTA0NzksMTYxLjg1Mjg0MyBMMzc4LjU1MDQ3OSw3MS43MDMzODg5IFogTTQ1NS4yMTAzNjEsMTI4LjY5ODA4MyBDNDU1LjIxMDM2MSwxMzYuOTk0OTIyIDQ2MS4xNzUzNTksMTQ5LjA1NzgwOCA0NzUuNTU1MDQyLDE0OS4wNTc4MDggQzQ4NC40Mzg2MDIsMTQ5LjA1NzgwOCA0OTAuMjkzMjc2LDE0NC40MjE3MDggNDkzLjMzNDY5OCwxMzguMzQ2Mzg2IEM0OTQuOTI5Mzc2LDEzNS4zOTc3MzYgNDk1LjY2NDAzMiwxMzIuMjQ1OTkxIDQ5NS45MDQ3MzgsMTI4Ljk2NjM3IEM0OTYuMDE1MDYxLDEyNS43OTIwNTggNDk1LjQxNTgwMywxMjIuNDkyMzc5IDQ5NC4wNjQzMzksMTE5LjU2MTI4IEM0OTEuMjcxMTQ1LDExMy4yNDI3NDUgNDg1LjA2MDQyNiwxMDcuNzY0MTczIDQ3NS40MzcxOTYsMTA3Ljc2NDE3MyBDNDYyLjUyNjgyMywxMDcuNzY0MTczIDQ1NS4yMTAzNjEsMTE4LjIyOTg3NCA0NTUuMjEwMzYxLDEyOC41ODc3NTkgTDQ1NS4yMTAzNjEsMTI4LjY5ODA4MyBaIE01MTEuNzM4Njg3LDE2MS44NTI4NDMgTDQ5NS43NzQzNTUsMTYxLjg1Mjg0MyBMNDk1Ljc3NDM1NSwxNTIuMjI5NjEzIEM0OTEuNTExODUxLDE2MC4wMTI0NDQgNDgyLjYyMDc2OSwxNjMuOTE4OTAzIDQ3My4yNDA3NTMsMTYzLjkxODkwMyBDNDUxLjc5NTM0MywxNjMuOTE4OTAzIDQzOS4yNjEwNzMsMTQ3LjIxNzQwOSA0MzkuMjYxMDczLDEyOC4zNDQ1NDYgQzQzOS4yNjEwNzMsMTA3LjI3NTIzOSA0NTQuNDgzMjI4LDkyLjkwMzA3ODMgNDczLjI0MDc1Myw5Mi45MDMwNzgzIEM0ODUuNDE2NDcsOTIuOTAzMDc4MyA0OTIuODUzMjg2LDk5LjM1OTUxODIgNDk1Ljc3NDM1NSwxMDQuNzI1MjU5IEw0OTUuNzc0MzU1LDk0Ljk2NjYzMTcgTDUxMS43Mzg2ODcsOTQuOTY2NjMxNyBMNTExLjczODY4NywxNjEuODUyODQzIFoiPiYjeGE7JiN4YTs8L3BhdGg+JiN4YTsJCTwvZz4mI3hhOzwvc3ZnPg==;imageBorder=none;strokeWidth=0.1;imageBackground=none;fillStyle=hatch;" vertex="1" parent="1">
          <mxGeometry x="150" y="274.81" width="120" height="54.75" as="geometry" />
        </mxCell>
        <mxCell id="MCLq1SWzRcjiVBtT3A2h-12" value="" style="shape=image;verticalLabelPosition=bottom;labelBackgroundColor=none;verticalAlign=top;aspect=fixed;imageAspect=0;editableCssRules=.*;image=data:image/svg+xml,PHN2ZyB4bWxucz0iaHR0cDovL3d3dy53My5vcmcvMjAwMC9zdmciIGZpbGw9Im5vbmUiIHZpZXdCb3g9IjIgMiAyNy45OTk3OTk3MjgzOTM1NTUgMjgiIGhlaWdodD0iNzAwIiB3aWR0aD0iNjk5Ljk5NDk5MzIwOTgzODkiPiYjeGE7PHBhdGggZmlsbD0idXJsKCNwYWludDBfbGluZWFyXzg3XzgyMDQpIiBkPSJNMTMuMDE2NCAyQzEwLjgxOTMgMiA5LjAzODI1IDMuNzI0NTMgOS4wMzgyNSA1Ljg1MTg1VjguNTE4NTJIMTUuOTIzNVY5LjI1OTI2SDUuOTc4MTRDMy43ODEwNyA5LjI1OTI2IDIgMTAuOTgzOCAyIDEzLjExMTFMMiAxOC44ODg5QzIgMjEuMDE2MiAzLjc4MTA3IDIyLjc0MDcgNS45NzgxNCAyMi43NDA3SDguMjczMjJWMTkuNDgxNUM4LjI3MzIyIDE3LjM1NDIgMTAuMDU0MyAxNS42Mjk2IDEyLjI1MTQgMTUuNjI5NkgxOS41OTU2QzIxLjQ1NDcgMTUuNjI5NiAyMi45NjE3IDE0LjE3MDQgMjIuOTYxNyAxMi4zNzA0VjUuODUxODVDMjIuOTYxNyAzLjcyNDUzIDIxLjE4MDcgMiAxOC45ODM2IDJIMTMuMDE2NFpNMTIuMDk4NCA2Ljc0MDc0QzEyLjg1ODkgNi43NDA3NCAxMy40NzU0IDYuMTQzNzggMTMuNDc1NCA1LjQwNzQxQzEzLjQ3NTQgNC42NzEwMyAxMi44NTg5IDQuMDc0MDcgMTIuMDk4NCA0LjA3NDA3QzExLjMzNzggNC4wNzQwNyAxMC43MjEzIDQuNjcxMDMgMTAuNzIxMyA1LjQwNzQxQzEwLjcyMTMgNi4xNDM3OCAxMS4zMzc4IDYuNzQwNzQgMTIuMDk4NCA2Ljc0MDc0WiIgY2xpcC1ydWxlPSJldmVub2RkIiBmaWxsLXJ1bGU9ImV2ZW5vZGQiLz4mI3hhOzxwYXRoIGZpbGw9InVybCgjcGFpbnQxX2xpbmVhcl84N184MjA0KSIgZD0iTTE4Ljk4MzQgMzBDMjEuMTgwNSAzMCAyMi45NjE2IDI4LjI3NTUgMjIuOTYxNiAyNi4xNDgyVjIzLjQ4MTVMMTYuMDc2MyAyMy40ODE1TDE2LjA3NjMgMjIuNzQwOEwyNi4wMjE3IDIyLjc0MDhDMjguMjE4OCAyMi43NDA4IDI5Ljk5OTggMjEuMDE2MiAyOS45OTk4IDE4Ljg4ODlWMTMuMTExMUMyOS45OTk4IDEwLjk4MzggMjguMjE4OCA5LjI1OTI4IDI2LjAyMTcgOS4yNTkyOEwyMy43MjY2IDkuMjU5MjhWMTIuNTE4NUMyMy43MjY2IDE0LjY0NTkgMjEuOTQ1NSAxNi4zNzA0IDE5Ljc0ODUgMTYuMzcwNEwxMi40MDQyIDE2LjM3MDRDMTAuNTQ1MSAxNi4zNzA0IDkuMDM4MDkgMTcuODI5NiA5LjAzODA5IDE5LjYyOTZMOS4wMzgwOSAyNi4xNDgyQzkuMDM4MDkgMjguMjc1NSAxMC44MTkyIDMwIDEzLjAxNjIgMzBIMTguOTgzNFpNMTkuOTAxNSAyNS4yNTkzQzE5LjE0MDkgMjUuMjU5MyAxOC41MjQ0IDI1Ljg1NjIgMTguNTI0NCAyNi41OTI2QzE4LjUyNDQgMjcuMzI5IDE5LjE0MDkgMjcuOTI1OSAxOS45MDE1IDI3LjkyNTlDMjAuNjYyIDI3LjkyNTkgMjEuMjc4NSAyNy4zMjkgMjEuMjc4NSAyNi41OTI2QzIxLjI3ODUgMjUuODU2MiAyMC42NjIgMjUuMjU5MyAxOS45MDE1IDI1LjI1OTNaIiBjbGlwLXJ1bGU9ImV2ZW5vZGQiIGZpbGwtcnVsZT0iZXZlbm9kZCIvPiYjeGE7PGRlZnM+JiN4YTs8bGluZWFyR3JhZGllbnQgZ3JhZGllbnRVbml0cz0idXNlclNwYWNlT25Vc2UiIHkyPSIyMi43NDA3IiB4Mj0iMTIuNDgwOSIgeTE9IjIiIHgxPSIxMi40ODA5IiBpZD0icGFpbnQwX2xpbmVhcl84N184MjA0Ij4mI3hhOzxzdG9wIHN0b3AtY29sb3I9IiMzMjdFQkQiLz4mI3hhOzxzdG9wIHN0b3AtY29sb3I9IiMxNTY1QTciIG9mZnNldD0iMSIvPiYjeGE7PC9saW5lYXJHcmFkaWVudD4mI3hhOzxsaW5lYXJHcmFkaWVudCBncmFkaWVudFVuaXRzPSJ1c2VyU3BhY2VPblVzZSIgeTI9IjMwIiB4Mj0iMTkuNTE5IiB5MT0iOS4yNTkyOCIgeDE9IjE5LjUxOSIgaWQ9InBhaW50MV9saW5lYXJfODdfODIwNCI+JiN4YTs8c3RvcCBzdG9wLWNvbG9yPSIjRkZEQTRCIi8+JiN4YTs8c3RvcCBzdG9wLWNvbG9yPSIjRjlDNjAwIiBvZmZzZXQ9IjEiLz4mI3hhOzwvbGluZWFyR3JhZGllbnQ+JiN4YTs8L2RlZnM+JiN4YTs8L3N2Zz4=;" vertex="1" parent="1">
          <mxGeometry x="180" y="140" width="60" height="60" as="geometry" />
        </mxCell>
        <mxCell id="MCLq1SWzRcjiVBtT3A2h-15" value="&lt;span style=&quot;text-wrap-mode: nowrap;&quot;&gt;Spark Consumer&lt;/span&gt;" style="text;strokeColor=none;align=center;fillColor=none;html=1;verticalAlign=middle;whiteSpace=wrap;rounded=0;" vertex="1" parent="1">
          <mxGeometry x="180" y="100" width="60" height="30" as="geometry" />
        </mxCell>
        <mxCell id="MCLq1SWzRcjiVBtT3A2h-17" value="Graph API" style="shape=image;verticalLabelPosition=bottom;labelBackgroundColor=none;verticalAlign=top;aspect=fixed;imageAspect=0;editableCssRules=.*;image=data:image/svg+xml,PHN2ZyB4bWxuczp4bGluaz0iaHR0cDovL3d3dy53My5vcmcvMTk5OS94bGluayIgeG1sbnM9Imh0dHA6Ly93d3cudzMub3JnLzIwMDAvc3ZnIiB4bWw6c3BhY2U9InByZXNlcnZlIiB2ZXJzaW9uPSIxLjEiIGlkPSJDYW1hZGFfMSIgdmlld0JveD0iMiA3IDI4LjA5OTk5ODQ3NDEyMTA5NCAxOS4xMDAwMDAzODE0Njk3MjciIGhlaWdodD0iNDc3LjUwMDAwOTUzNjc0MzE2IiB3aWR0aD0iNzAyLjQ5OTk2MTg1MzAyNzMiIGZpbGw9IiMwMDAwMDAiPjxwYXRoIGQ9Ik01LDE5LjVjMC00LjYsMi4zLTkuNCw1LTkuNGMxLjUsMCwyLjcsMC45LDQuNiwzLjZjLTEuOCwyLjgtMi45LDQuNS0yLjksNC41Yy0yLjQsMy44LTMuMiw0LjYtNC41LDQuNiAgQzUuOSwyMi45LDUsMjEuNyw1LDE5LjUgTTIwLjcsMTcuOEwxOSwxNWMtMC40LTAuNy0wLjktMS40LTEuMy0yYzEuNS0yLjMsMi43LTMuNSw0LjItMy41YzMsMCw1LjQsNC41LDUuNCwxMC4xICBjMCwyLjEtMC43LDMuMy0yLjEsMy4zUzIzLjMsMjIsMjAuNywxNy44IE0xNi40LDExYy0yLjItMi45LTQuMS00LTYuMy00QzUuNSw3LDIsMTMuMSwyLDE5LjVjMCw0LDEuOSw2LjUsNS4xLDYuNSAgYzIuMywwLDMuOS0xLjEsNi45LTYuM2MwLDAsMS4yLTIuMiwyLjEtMy43YzAuMywwLjUsMC42LDEsMC45LDEuNmwxLjQsMi40YzIuNyw0LjYsNC4yLDYuMSw2LjksNi4xYzMuMSwwLDQuOC0yLjYsNC44LTYuNyAgQzMwLDEyLjYsMjYuNCw3LDIyLjEsN0MxOS44LDcsMTgsOC44LDE2LjQsMTEiLz48L3N2Zz4=;imageBackground=none;" vertex="1" parent="1">
          <mxGeometry x="840" y="271.5" width="73.43" height="50" as="geometry" />
        </mxCell>
        <mxCell id="MCLq1SWzRcjiVBtT3A2h-25" value="&lt;span style=&quot;float: none; color: rgb(0, 0, 0); display: inline !important;&quot;&gt;Facebook Servers&amp;nbsp;&lt;/span&gt;" style="sketch=0;pointerEvents=1;shadow=0;dashed=0;html=1;strokeColor=none;fillColor=#505050;labelPosition=center;verticalLabelPosition=bottom;verticalAlign=top;outlineConnect=0;align=center;shape=mxgraph.office.servers.server_farm;fillColor=#7FBA42;" vertex="1" parent="1">
          <mxGeometry x="1010" y="271" width="56" height="49" as="geometry" />
        </mxCell>
        <mxCell id="MCLq1SWzRcjiVBtT3A2h-27" style="edgeStyle=orthogonalEdgeStyle;rounded=0;orthogonalLoop=1;jettySize=auto;html=1;entryX=1;entryY=0.5;entryDx=0;entryDy=0;exitX=0.008;exitY=0.629;exitDx=0;exitDy=0;exitPerimeter=0;" edge="1" parent="1">
          <mxGeometry relative="1" as="geometry">
            <mxPoint x="360.13136" y="301.71999999999997" as="sourcePoint" />
            <mxPoint x="270" y="302.185" as="targetPoint" />
            <Array as="points">
              <mxPoint x="360" y="302" />
            </Array>
          </mxGeometry>
        </mxCell>
        <mxCell id="MCLq1SWzRcjiVBtT3A2h-26" value="Category Producer" style="shape=image;verticalLabelPosition=bottom;labelBackgroundColor=default;verticalAlign=top;aspect=fixed;imageAspect=0;editableCssRules=.*;image=data:image/svg+xml,PHN2ZyB4bWxucz0iaHR0cDovL3d3dy53My5vcmcvMjAwMC9zdmciIHByZXNlcnZlQXNwZWN0UmF0aW89InhNaW5ZTWluIG1lZXQiIHZpZXdCb3g9IjAuODU2OTgyMDUyMzI2MjAyNCAwLjM4MjUzNTUxNzIxNTcyODc2IDUxMS4xMzI5NjUwODc4OTA2IDE0NC4zMzc0OTM4OTY0ODQzOCIgaGVpZ2h0PSIyMjUuNTI3MzM0MjEzMjU2ODQiIHdpZHRoPSI3OTguNjQ1MjU3OTQ5ODI5MSI+JiN4YTsmI3hhOzxnIGZpbGw9IiM4M0NEMjkiPiYjeGE7JiN4YTs8cGF0aCBkPSJNNDcxLjA1IDUxLjYxMWMtMS4yNDQgMC0yLjQ1NC4yNTctMy41MjUuODYzbC0zMy44ODggMTkuNTdjLTIuMTkzIDEuMjY0LTMuNTI2IDMuNjUtMy41MjYgNi4xODl2MzkuMDY5YzAgMi41MzcgMS4zMzMgNC45MiAzLjUyNiA2LjE4N2w4Ljg1IDUuMTA5YzQuMyAyLjExOSA1Ljg4NSAyLjA4NiA3Ljg0MiAyLjA4NiA2LjM2NiAwIDEwLjAwMS0zLjg2MyAxMC4wMDEtMTAuNTc2VjgxLjU0MmMwLS41NDUtLjQ3Mi0uOTM1LTEuMDA3LS45MzVoLTQuMjQ1Yy0uNTQ0IDAtMS4wMDcuMzktMS4wMDcuOTM1djM4LjU2NmMwIDIuOTc1LTMuMSA1Ljk2OC04LjEzIDMuNDUzbC05LjIxLTUuMzk2Yy0uMzI2LS4xNzctLjU3Ni0uNDktLjU3Ni0uODYzdi0zOS4wN2MwLS4zNy4yNDctLjc0Ny41NzYtLjkzNUw0NzAuNTQ3IDU3LjhhLjk5OC45OTggMCAwIDEgMS4wMDcgMGwzMy44MTcgMTkuNDk4Yy4zMjIuMTk0LjU3Ni41NTMuNTc2LjkzNnYzOS4wNjljMCAuMzczLS4xODguNzU1LS41MDQuOTM1bC0zMy44ODkgMTkuNDk4Yy0uMjkuMTczLS42OS4xNzMtMS4wMDcgMGwtOC43MDYtNS4xOGEuOTA1LjkwNSAwIDAgMC0uODYzIDBjLTIuNDAzIDEuMzYyLTIuODU1IDEuNTItNS4xMDkgMi4zMDItLjU1NS4xOTQtMS4zOTguNDk1LjI4OCAxLjQ0bDExLjM2OCA2LjY5YTYuOTk1IDYuOTk1IDAgMCAwIDMuNTI2LjkzNiA2Ljk0OSA2Ljk0OSAwIDAgMCAzLjUyNS0uOTM1bDMzLjg4OS0xOS40OTljMi4xOTMtMS4yNzUgMy41MjUtMy42NSAzLjUyNS02LjE4N3YtMzkuMDdjMC0yLjUzOC0xLjMzMi00LjkyLTMuNTI1LTYuMTg3bC0zMy44ODktMTkuNTdjLTEuMDYyLS42MDctMi4yOC0uODY0LTMuNTI1LS44NjR6Ii8+JiN4YTsmI3hhOzxwYXRoIGQ9Ik00ODAuMTE2IDc5LjUyOGMtOS42NSAwLTE1LjM5NyA0LjEwNy0xNS4zOTcgMTAuOTM3IDAgNy40MDggNS43MDQgOS40NDQgMTQuOTY2IDEwLjM2IDExLjA4IDEuMDg1IDExLjk0MyAyLjcxMiAxMS45NDMgNC44OTMgMCAzLjc4My0zLjAxNiA1LjM5Ni0xMC4xNDQgNS4zOTYtOC45NTcgMC0xMC45MjUtMi4yMzYtMTEuNTg0LTYuNjkxLS4wNzgtLjQ3OC0uNDQ3LS44NjQtLjkzNi0uODY0aC00LjM4OWMtLjU0IDAtMS4wMDcuNDY2LTEuMDA3IDEuMDA4IDAgNS43MDMgMy4xMDIgMTIuNDQ3IDE3LjkxNiAxMi40NDcgMTAuNzIzIDAgMTYuOTA4LTQuMjA5IDE2LjkwOC0xMS41ODQgMC03LjMxLTQuOTk2LTkuMjczLTE1LjM5OC0xMC42NDgtMTAuNTEtMS4zOTEtMTEuNTEyLTIuMDcyLTExLjUxMi00LjUzMyAwLTIuMDMyLjg1LTQuNzUgOC42MzQtNC43NSA2Ljk1NCAwIDkuNTI0IDEuNSAxMC41NzcgNi4xODkuMDkyLjQ0LjQ4Ljc5MS45MzUuNzkxaDQuMzljLjI3IDAgLjUzMi0uMTY2LjcxOS0uMzYuMTg0LS4yMDcuMzE0LS40NC4yODgtLjcxOS0uNjgtOC4wNzQtNi4wNjQtMTEuODcyLTE2LjkwOS0xMS44NzJ6Ii8+JiN4YTsmI3hhOzwvZz4mI3hhOyYjeGE7PHBhdGggZmlsbD0iIzQwNDEzNyIgZD0iTTI3MS44MjEuMzgzYTIuMTgxIDIuMTgxIDAgMCAwLTEuMDguMjg3IDIuMTggMi4xOCAwIDAgMC0xLjA3OSAxLjg3MXY1NS4wNDJjMCAuNTQtLjI1MSAxLjAyNC0uNzE5IDEuMjk1YTEuNTAxIDEuNTAxIDAgMCAxLTEuNTExIDBsLTguOTk0LTUuMThhNC4zMSA0LjMxIDAgMCAwLTQuMzE3IDBsLTM1LjkwMyAyMC43MjFjLTEuMzQyLjc3NS0yLjE1OCAyLjI2NC0yLjE1OCAzLjgxNHY0MS40NDNjMCAxLjU0OC44MTcgMi45NjYgMi4xNTggMy43NDFsMzUuOTAzIDIwLjcyMmE0LjMgNC4zIDAgMCAwIDQuMzE3IDBsMzUuOTAzLTIwLjcyMmE0LjMwOCA0LjMwOCAwIDAgMCAyLjE1OS0zLjc0MVYxNi4zNTZhNC4zODYgNC4zODYgMCAwIDAtMi4yMy0zLjgxNEwyNzIuOS41OThjLS4zMzUtLjE4Ny0uNzA3LS4yMi0xLjA3OS0uMjE1ek00MC44NjEgNTIuMTE1Yy0uNjg0LjAyNy0xLjMyOC4xNDctMS45NDIuNTAzTDMuMDE1IDczLjM0YTQuMyA0LjMgMCAwIDAtMi4xNTggMy43NDFMLjkyOSAxMzIuN2MwIC43NzMuMzk5IDEuNDkyIDEuMDc5IDEuODdhMi4wOTYgMi4wOTYgMCAwIDAgMi4xNTkgMGwyMS4yOTctMTIuMjMxYzEuMzQ5LS44MDIgMi4yMy0yLjE5NiAyLjIzLTMuNzQyVjkyLjYyM2MwLTEuNTUuODE1LTIuOTcyIDIuMTU5LTMuNzQybDkuMDY1LTUuMjUyYTQuMjUxIDQuMjUxIDAgMCAxIDIuMTU5LS41NzZjLjc0IDAgMS41LjE4NSAyLjE1OC41NzZsOS4wNjYgNS4yNTJhNC4yOTYgNC4yOTYgMCAwIDEgMi4xNTkgMy43NDJ2MjUuOTczYzAgMS41NDYuODkgMi45NSAyLjIzIDMuNzQybDIxLjI5NyAxMi4yMzJhMi4wOTYgMi4wOTYgMCAwIDAgMi4xNTkgMCAyLjE2NCAyLjE2NCAwIDAgMCAxLjA4LTEuODcxbC4wNy01NS42MThhNC4yOCA0LjI4IDAgMCAwLTIuMTU4LTMuNzQxTDQzLjIzNSA1Mi42MThjLS42MDctLjM1Ni0xLjI1My0uNDc1LTEuOTQyLS41MDNoLS40MzJ6bTMyMi42MjQuNTAzYy0uNzUgMC0xLjQ4NS4xOS0yLjE1OC41NzZsLTM1LjkwMyAyMC43MjJhNC4zMDYgNC4zMDYgMCAwIDAtMi4xNTkgMy43NDFWMTE5LjFjMCAxLjU1OS44NzggMi45NzEgMi4yMyAzLjc0MmwzNS42MTYgMjAuMjljMS4zMTUuNzUgMi45MjEuODA3IDQuMjQ1LjA3bDIxLjU4NS0xMi4wMTVjLjY4NS0uMzggMS4xNDgtMS4wOSAxLjE1MS0xLjg3YTIuMTI2IDIuMTI2IDAgMCAwLTEuMDc5LTEuODcxbC0zNi4xMTktMjAuNzIyYy0uNjc2LS4zODYtMS4xNTEtMS4xNjctMS4xNTEtMS45NDN2LTEyLjk1YzAtLjc3NS40OC0xLjQ4NSAxLjE1MS0xLjg3MWwxMS4yMjQtNi40NzZhMi4xNTUgMi4xNTUgMCAwIDEgMi4xNTkgMEwzNzUuNSA4OS45NmEyLjE1MiAyLjE1MiAwIDAgMSAxLjA4IDEuODd2MTAuMjE3YTIuMTUgMi4xNSAwIDAgMCAxLjA3OSAxLjg3Yy42NzMuMzg5IDEuNDg3LjM5IDIuMTU4IDBMNDAxLjMzMSA5MS40YTQuMzI1IDQuMzI1IDAgMCAwIDIuMTU5LTMuNzQydi0xMGMwLTEuNTQ1LS44Mi0yLjk2Ni0yLjE1OS0zLjc0MmwtMzUuNjg3LTIwLjcyMmE0LjI3OSA0LjI3OSAwIDAgMC0yLjE1OS0uNTc1em0tMTA3LjM1IDMwLjkzOWMuMTg4IDAgLjQwOC4wNDYuNTc2LjE0M2wxMi4zMDQgNy4xMjNjLjMzNC4xOTMuNTc2LjU1LjU3Ni45MzV2MTQuMjQ2YzAgLjM4Ny0uMjQuNzQzLS41NzYuOTM2bC0xMi4zMDQgNy4xMjNhMS4wODggMS4wODggMCAwIDEtMS4wNzkgMGwtMTIuMzAzLTcuMTIzYy0uMzM1LS4xOTQtLjU3Ni0uNTQ5LS41NzYtLjkzNlY5MS43NThjMC0uMzg2LjI0Mi0uNzQuNTc2LS45MzVsMTIuMzAzLTcuMTIyYS45NDguOTQ4IDAgMCAxIC41MDQtLjE0M3YtLjAwMXoiLz4mI3hhOyYjeGE7PHBhdGggZmlsbD0iIzgzQ0QyOSIgZD0iTTE0OC43MTQgNTIuNDAyYy0uNzQ4IDAtMS40ODguMTktMi4xNTguNTc2bC0zNS45MDMgMjAuNjVjLTEuMzQzLjc3My0yLjE1OSAyLjI2NS0yLjE1OSAzLjgxM3Y0MS40NDNjMCAxLjU1LjgxNyAyLjk2NiAyLjE1OSAzLjc0MmwzNS45MDMgMjAuNzIxYTQuMjk3IDQuMjk3IDAgMCAwIDQuMzE3IDBsMzUuOTAzLTIwLjcyMWE0LjMwOCA0LjMwOCAwIDAgMCAyLjE1OC0zLjc0MlY3Ny40NDFjMC0xLjU1LS44MTYtMy4wNC0yLjE1OC0zLjgxM2wtMzUuOTAzLTIwLjY1YTQuMjk3IDQuMjk3IDAgMCAwLTIuMTU5LS41NzZ6TTM2My40MTMgODkuMzg1Yy0uMTQzIDAtLjMwMiAwLS40MzEuMDcybC02LjkwNyA0LjAyOWEuODQuODQgMCAwIDAtLjQzMi43MnY3LjkxNGMwIC4yOTguMTcyLjU3MS40MzIuNzJsNi45MDcgMy45NTdjLjI1OS4xNS41MzUuMTUuNzkxIDBsNi45MDctMy45NThhLjg0Ni44NDYgMCAwIDAgLjQzMi0uNzE5di03LjkxNWEuODQ2Ljg0NiAwIDAgMC0uNDMyLS43MTlsLTYuOTA3LTQuMDNjLS4xMjgtLjA3NS0uMjE2LS4wNy0uMzYtLjA3eiIvPiYjeGE7JiN4YTs8L3N2Zz4=;" vertex="1" parent="1">
          <mxGeometry x="359" y="276.56" width="141.42" height="40" as="geometry" />
        </mxCell>
        <mxCell id="MCLq1SWzRcjiVBtT3A2h-28" style="edgeStyle=orthogonalEdgeStyle;rounded=0;orthogonalLoop=1;jettySize=auto;html=1;exitX=1;exitY=0.5;exitDx=0;exitDy=0;startArrow=classic;startFill=1;" edge="1" parent="1" source="MCLq1SWzRcjiVBtT3A2h-26" target="MCLq1SWzRcjiVBtT3A2h-6">
          <mxGeometry relative="1" as="geometry">
            <mxPoint x="630" y="300" as="targetPoint" />
          </mxGeometry>
        </mxCell>
      </root>
    </mxGraphModel>
  </diagram>
</mxfile>
